# xmcd
#
# Track frame offsets:
#	150
#	11190
#	24783
#	37697
#	50315
#	62639
#	75356
#	88844
#	101516
#	115771
#	129474
#	142515
#	158186
#	167984
#	181614
#	193251
#	207087
#	219930
#	232932
#	244368
#	257080
#	269235
#	283854
#	297542
#	311004
#
# Disc length: 4310 seconds
#
# Revision: 1
# Processed by: cddbd v1.5.2PL0 Copyright (c) Steve Scherf et al.
# Submitted via: audiograbber 1.83.01
#
DISCID=5c10d419
DTITLE=Various Artist - Bluesology
DYEAR=2013
DGENRE=Blues
TTITLE0=Screamin' Ray Hawkins - I Put A Spell On You
TTITLE1=Bo Diddley - I'm A Man
TTITLE2=Muddy Waters - Got My Mojo Working
TTITLE3=Jimmy Reed - Big Boss Man
TTITLE4=Howlin' Wolf - Spoonful
TTITLE5=B.B. King - Every Day I Have The Blues
TTITLE6=Jimmy Witherspoon - When The Lights Go Out
TTITLE7=Big Bill Broonzy - Water Coast Blues
TTITLE8=Champion Jack Dupree - Nasty Boogie
TTITLE9=Buddy Guy - Sit And Cry (The Blues)
TTITLE10=Lowell Fulson - Trouble, Trouble
TTITLE11=Son House - Death Letter Blues
TTITLE12=Chuck Berry - Worried Life Blues
TTITLE13=Blind Lemon Jefferson - Black Snake Moan
TTITLE14=Sonny Boy Williamson - Don't Start Me To Talkin'
TTITLE15=Elmore James - It Hurts Me Too
TTITLE16=Junior Wells - Cut That Out
TTITLE17=Robert Johnson - Preaching Blues (Up Jumped The Devil)
TTITLE18=Willie Dixon and Memphis Slim - Built For Comfort
TTITLE19=Albert King - Dyna Flow
TTITLE20=Robert Lockwood Junior - My Daily Wish
TTITLE21=Willie Nix - Riding In The Moonlight
TTITLE22=Leadbelly - Leaving Blues
TTITLE23=Lightnin' Hopkins - Give Me Central 209
TTITLE24=John Lee Hooker - Baby I'm Gonna Miss You
EXTD=
EXTT0=
EXTT1=
EXTT2=
EXTT3=
EXTT4=
EXTT5=
EXTT6=
EXTT7=
EXTT8=
EXTT9=
EXTT10=
EXTT11=
EXTT12=
EXTT13=
EXTT14=
EXTT15=
EXTT16=
EXTT17=
EXTT18=
EXTT19=
EXTT20=
EXTT21=
EXTT22=
EXTT23=
EXTT24=
PLAYORDER=
